<mxfile host="Electron" modified="2024-04-08T19:53:58.321Z" agent="Mozilla/5.0 (Macintosh; Intel Mac OS X 10_15_7) AppleWebKit/537.36 (KHTML, like Gecko) draw.io/24.1.0 Chrome/120.0.6099.109 Electron/28.1.0 Safari/537.36" etag="3N_mjScmyk1VEsK8bVcy" version="24.1.0" type="device">
  <diagram name="Page-1" id="460b9VJ3DY00cZS0Tk84">
    <mxGraphModel dx="843" dy="683" grid="1" gridSize="10" guides="1" tooltips="1" connect="1" arrows="1" fold="1" page="1" pageScale="1" pageWidth="827" pageHeight="1169" math="0" shadow="0">
      <root>
        <mxCell id="0" />
        <mxCell id="1" parent="0" />
        <mxCell id="gQCVezqk5yd6sV0-QO5y-1" value="" style="shape=image;verticalLabelPosition=bottom;labelBackgroundColor=default;verticalAlign=top;aspect=fixed;imageAspect=0;image=data:image/svg+xml,PHN2ZyB4bWxuczp4bGluaz0iaHR0cDovL3d3dy53My5vcmcvMTk5OS94bGluayIgeG1sbnM9Imh0dHA6Ly93d3cudzMub3JnLzIwMDAvc3ZnIiBoZWlnaHQ9IjEyOS41NjIiIHdpZHRoPSIxMDMuODc1IiB2ZXJzaW9uPSIxLjEiIHZpZXdCb3g9IjAgMCAxMDMuODc1IDEyOS41NjIiPiYjeGE7IDxnPiYjeGE7ICA8cmVjdCB5PSIwIiB4PSIwIiB3aWR0aD0iMTAzLjg3NSIgb3BhY2l0eT0iMCIgaGVpZ2h0PSIxMjkuNTYyIi8+JiN4YTsgIDxwYXRoIGZpbGw9IiMwMDAwMDAiIGQ9Ik01MS45Mzc1IDEyOS41NjJDNTIuOTM3NSAxMjkuNTYyIDU0LjU2MjUgMTI5LjE4OCA1Ni4xMjUgMTI4LjMxMkM5MS42ODc1IDEwOC4zNzUgMTAzLjg3NSA5OS45Mzc1IDEwMy44NzUgNzcuMTI1TDEwMy44NzUgMjkuMzEyNUMxMDMuODc1IDIyLjc1IDEwMS4wNjIgMjAuNjg3NSA5NS43NSAxOC40Mzc1Qzg4LjM3NSAxNS4zNzUgNjQuNTYyNSA2LjgxMjUgNTcuMTg3NSA0LjI1QzU1LjUgMy42ODc1IDUzLjY4NzUgMy4zMTI1IDUxLjkzNzUgMy4zMTI1QzUwLjE4NzUgMy4zMTI1IDQ4LjM3NSAzLjgxMjUgNDYuNzUgNC4yNUMzOS4zNzUgNi4zNzUgMTUuNSAxNS40Mzc1IDguMTI1IDE4LjQzNzVDMi44NzUgMjAuNjI1IDAgMjIuNzUgMCAyOS4zMTI1TDAgNzcuMTI1QzAgOTkuOTM3NSAxMi4yNSAxMDguMzEyIDQ3Ljc1IDEyOC4zMTJDNDkuMzc1IDEyOS4xODggNTAuOTM3NSAxMjkuNTYyIDUxLjkzNzUgMTI5LjU2MlpNNTEuOTM3NSAxMTguMjVDNTAuOTM3NSAxMTguMjUgNDkuOTM3NSAxMTcuODc1IDQ4LjA2MjUgMTE2Ljc1QzE5LjE4NzUgOTkuMjUgOS45Mzc1IDk0LjEyNSA5LjkzNzUgNzQuODEyNUw5LjkzNzUgMzEuMjVDOS45Mzc1IDI5LjEyNSAxMC4zMTI1IDI4LjMxMjUgMTIuMDYyNSAyNy42MjVDMjEuNTYyNSAyMy44NzUgNDAgMTcuNjg3NSA0OS40Mzc1IDEzLjkzNzVDNTAuNDM3NSAxMy41IDUxLjI1IDEzLjM3NSA1MS45Mzc1IDEzLjM3NUM1Mi42MjUgMTMuMzc1IDUzLjQzNzUgMTMuNTYyNSA1NC40Mzc1IDEzLjkzNzVDNjMuODc1IDE3LjY4NzUgODIuMTg3NSAyNC4zMTI1IDkxLjg3NSAyNy42MjVDOTMuNTYyNSAyOC4yNSA5My45Mzc1IDI5LjEyNSA5My45Mzc1IDMxLjI1TDkzLjkzNzUgNzQuODEyNUM5My45Mzc1IDk0LjEyNSA4NC42ODc1IDk5LjE4NzUgNTUuODEyNSAxMTYuNzVDNTQgMTE3Ljg3NSA1Mi45Mzc1IDExOC4yNSA1MS45Mzc1IDExOC4yNVpNMzAuNjI1IDg5Ljg3NUMzMi4wNjI1IDg5Ljg3NSAzMy4zMTI1IDg5LjMxMjUgMzQuMjUgODguMzEyNUw1MS45Mzc1IDcwLjU2MjVMNjkuNzUgODguMzEyNUM3MC42ODc1IDg5LjI1IDcxLjg3NSA4OS44NzUgNzMuMzEyNSA4OS44NzVDNzYuMTI1IDg5Ljg3NSA3OC4zMTI1IDg3LjU2MjUgNzguMzEyNSA4NC44MTI1Qzc4LjMxMjUgODMuMzc1IDc3LjgxMjUgODIuMjUgNzYuODEyNSA4MS4yNUw1OS4wNjI1IDYzLjVMNzYuODc1IDQ1LjYyNUM3Ny45Mzc1IDQ0LjU2MjUgNzguMzc1IDQzLjUgNzguMzc1IDQyLjEyNUM3OC4zNzUgMzkuMzc1IDc2LjE4NzUgMzcuMTI1IDczLjM3NSAzNy4xMjVDNzIuMDYyNSAzNy4xMjUgNzEgMzcuNjI1IDY5LjkzNzUgMzguNjg3NUw1MS45Mzc1IDU2LjVMMzQuMTI1IDM4Ljc1QzMzLjE4NzUgMzcuNzUgMzIuMDYyNSAzNy4yNSAzMC42MjUgMzcuMjVDMjcuODc1IDM3LjI1IDI1LjYyNSAzOS40Mzc1IDI1LjYyNSA0Mi4xODc1QzI1LjYyNSA0My41NjI1IDI2LjE4NzUgNDQuNzUgMjcuMTI1IDQ1LjY4NzVMNDQuODc1IDYzLjVMMjcuMTI1IDgxLjMxMjVDMjYuMTg3NSA4Mi4yNSAyNS42MjUgODMuNDM3NSAyNS42MjUgODQuODEyNUMyNS42MjUgODcuNTYyNSAyNy44NzUgODkuODc1IDMwLjYyNSA4OS44NzVaIi8+JiN4YTsgPC9nPiYjeGE7PC9zdmc+;" vertex="1" parent="1">
          <mxGeometry x="120" y="160" width="32" height="40" as="geometry" />
        </mxCell>
      </root>
    </mxGraphModel>
  </diagram>
</mxfile>
